HIERARCHY
ROOT root
{
	OFFSET	0	13.1	24.9
	CHANNELS 6  Xposition Yposition Zposition Xrotation Yrotation Zrotation
	JOINT spine_1
	{
		OFFSET	0	9.99999	0
		CHANNELS 3  Xrotation Yrotation Zrotation
		JOINT spine_2
		{
			OFFSET	0	112	-10
			CHANNELS 3  Xrotation Yrotation Zrotation
			JOINT spine_3
			{
				OFFSET	0	206.5	19.3
				CHANNELS 3  Xrotation Yrotation Zrotation
				JOINT spine_4
				{
					OFFSET	0	110.4	14.6
					CHANNELS 3  Xrotation Yrotation Zrotation
					JOINT neck_1
					{
						OFFSET	0	71.8	-50.3
						CHANNELS 3  Xrotation Yrotation Zrotation
						JOINT neck_2
						{
							OFFSET	0	86.2	-25.8
							CHANNELS 3  Xrotation Yrotation Zrotation
							JOINT head_ee
							{
								OFFSET	0	179.8	-8.7
								CHANNELS 3  Xrotation Yrotation Zrotation
								End Site
								{
									OFFSET	1	0	0
								}
							}
						}
					}
					JOINT left_clavicle
					{
						OFFSET	-43.2	22.4	-70.8
						CHANNELS 3  Xrotation Yrotation Zrotation
						JOINT left_shoulder
						{
							OFFSET	-93.9	-5.79999	48.7
							CHANNELS 3  Xrotation Yrotation Zrotation
							JOINT left_elbow
							{
								OFFSET	-291.4	-30.8	15.2
								CHANNELS 3  Xrotation Yrotation Zrotation
								JOINT left_lowarm_twist
								{
									OFFSET	-110.7	-3.89999	13.6
									CHANNELS 3  Xrotation Yrotation Zrotation
									JOINT left_hand
									{
										OFFSET	-110.7	-3.89999	13.6
										CHANNELS 3  Xrotation Yrotation Zrotation
										JOINT left_ee
										{
											OFFSET	-80.8	-5.10001	12.1
											CHANNELS 3  Xrotation Yrotation Zrotation
											End Site
											{
												OFFSET	1	0	0
											}
										}
									}
								}
							}
						}
					}
					JOINT right_clavicle
					{
						OFFSET	43.2	22.4	-70.8
						CHANNELS 3  Xrotation Yrotation Zrotation
						JOINT right_shoulder
						{
							OFFSET	93.9	-5.79999	48.7
							CHANNELS 3  Xrotation Yrotation Zrotation
							JOINT right_elbow
							{
								OFFSET	291.4	-30.8	15.2
								CHANNELS 3  Xrotation Yrotation Zrotation
								JOINT right_lowarm_twist
								{
									OFFSET	110.7	-3.89999	13.6
									CHANNELS 3  Xrotation Yrotation Zrotation
									JOINT right_hand
									{
										OFFSET	110.7	-3.89999	13.6
										CHANNELS 3  Xrotation Yrotation Zrotation
										JOINT right_ee
										{
											OFFSET	80.8	-5.10001	12.1
											CHANNELS 3  Xrotation Yrotation Zrotation
											End Site
											{
												OFFSET	1	0	0
											}
										}
									}
								}
							}
						}
					}
				}
			}
		}
	}
	JOINT left_hip
	{
		OFFSET	-82.8	-127.5	0.300001
		CHANNELS 3  Xrotation Yrotation Zrotation
		JOINT left_knee
		{
			OFFSET	-28.2	-396.7	2.2
			CHANNELS 3  Xrotation Yrotation Zrotation
			JOINT left_ankle
			{
				OFFSET	-11.7	-411.3	35.4
				CHANNELS 3  Xrotation Yrotation Zrotation
				JOINT left_toes
				{
					OFFSET	0	-60	-88.6
					CHANNELS 3  Xrotation Yrotation Zrotation
					JOINT left_foot_ee
					{
						OFFSET	-22.5	-16.5	-42.2
						CHANNELS 3  Xrotation Yrotation Zrotation
						End Site
						{
							OFFSET	1	0	0
						}
					}
				}
			}
		}
	}
	JOINT right_hip
	{
		OFFSET	82.8	-127.5	0.300001
		CHANNELS 3  Xrotation Yrotation Zrotation
		JOINT right_knee
		{
			OFFSET	28.2	-396.7	2.2
			CHANNELS 3  Xrotation Yrotation Zrotation
			JOINT right_ankle
			{
				OFFSET	11.7	-411.3	35.4
				CHANNELS 3  Xrotation Yrotation Zrotation
				JOINT right_toes
				{
					OFFSET	0	-60	-88.6
					CHANNELS 3  Xrotation Yrotation Zrotation
					JOINT right_foot_ee
					{
						OFFSET	22.5	-16.5	-42.2
						CHANNELS 3  Xrotation Yrotation Zrotation
						End Site
						{
							OFFSET	1	0	0
						}
					}
				}
			}
		}
	}
}
MOTION
Frames: 7
Frame Time: 0.02
2575.77 703.852 -1459.54 -4.38491 59.7634 -1.55208 1.60721 0.440399 2.75959 1.61141 0.263976 2.782 1.6246 -0.247905 2.78347 1.61384 0.194628 2.7877 -9.13409 15.8692 -2.27062 -9.36258 31.3461 1.65641 -0.0 0.0 -0.0 2.48127 23.9039 6.1328 15.3932 -25.6638 41.1399 9.32826 -77.737 7.52431 -63.8942 -5.77064 5.20581 -4.25409 24.7301 -14.4403 -0.0 0.0 -0.0 12.2019 20.0367 -24.3954 -33.3055 -3.12542 -64.7502 0.612754 16.8853 -0.0909504 -20.7762 1.17513 -2.36794 2.597 -29.9945 -26.5134 0.0 0.0 0.0 -20.9173 2.71175 18.8542 7.07422 -0.355239 -1.02634 36.2043 15.0381 -4.57762 -25.6424 0.0 0.0 -0.0 0.0 -0.0 33.2997 18.4849 -9.50666 2.20655 0.0971341 0.324635 -16.731 16.9924 -2.78749 -39.0823 0.0 0.0 0.0 0.0 0.0 
2555.59 698.112 -1463.74 -4.44235 59.9307 -1.55629 1.68095 0.387582 2.72802 1.68507 0.213272 2.74714 1.69554 -0.288056 2.74031 1.68509 0.148171 2.75141 -8.41114 15.9694 -3.25315 -8.53866 32.1451 0.488681 -0.0 0.0 -0.0 2.32418 22.2409 5.84905 14.1108 -25.3455 41.5632 7.54042 -74.9715 5.78643 -63.5959 -5.73305 5.19898 -4.14989 24.863 -13.7424 -0.0 0.0 -0.0 12.2853 19.9117 -24.5963 -33.1137 -3.00765 -65.1407 0.664118 18.2105 -0.106438 -20.8866 1.18361 -2.37926 2.71642 -30.2079 -27.2816 0.0 0.0 0.0 -22.2983 2.17526 19.3089 6.58878 -0.326826 -0.957353 36.9338 14.9313 -4.64678 -25.7734 0.0 0.0 -0.0 0.0 -0.0 33.1316 18.3504 -9.55297 2.167 0.0952829 0.318848 -17.7536 15.93 -2.93386 -38.788 0.0 0.0 0.0 0.0 0.0 
2531.34 695.976 -1468.41 -5.12338 60.1556 -0.732948 1.75674 0.477842 2.48359 1.76012 0.318887 2.50894 1.77431 -0.137412 2.52538 1.7655 0.263019 2.5154 -6.86941 16.0979 -3.36024 -6.79423 32.3276 -0.0791985 -0.0 0.0 -0.0 2.13087 21.7516 5.55224 11.0572 -25.1128 42.6521 7.11852 -74.1292 5.37976 -63.7292 -5.74984 5.20206 -3.97467 24.1757 -13.1541 -0.0 0.0 -0.0 12.451 20.0111 -24.9714 -32.9285 -2.88455 -65.4957 0.672775 18.4319 -0.109159 -20.8027 1.17716 -2.37066 2.7612 -30.0451 -27.5312 0.0 0.0 0.0 -22.6906 1.94277 19.0806 5.0982 -0.24326 -0.744091 36.82 15.2866 -4.64075 -26.0929 0.0 0.0 -0.0 0.0 -0.0 32.1456 17.9759 -9.57122 1.64661 0.0713 0.242605 -17.8717 14.997 -2.93203 -38.8899 0.0 0.0 0.0 0.0 0.0 
2500.56 700.577 -1473.02 -5.51672 60.2755 -0.29322 1.94976 0.459854 2.32741 1.95272 0.310865 2.35194 1.96553 -0.109154 2.36987 1.95779 0.266386 2.35739 -3.33552 15.5395 -5.74616 -2.68227 32.7267 -3.77855 -0.0 0.0 -0.0 1.74051 23.0454 5.07403 6.59581 -23.9937 43.436 7.36688 -74.6359 5.61895 -64.3773 -5.83161 5.21647 -3.64315 20.8117 -13.2416 -0.0 0.0 -0.0 12.9209 19.6809 -26.0838 -31.1926 -2.61073 -65.0705 0.523233 14.5311 -0.0667085 -21.1499 1.20391 -2.40619 2.68591 -27.6902 -26.6463 0.0 0.0 0.0 -23.1714 0.514243 18.8999 4.58115 -0.215577 -0.669628 33.9226 14.9488 -4.34881 -25.9867 0.0 0.0 -0.0 0.0 -0.0 29.899 18.5514 -8.45256 -1.82838 -0.0709531 -0.27161 -5.19251 15.2718 -0.840071 -34.6953 0.0 0.0 0.0 0.0 0.0 
2470.15 701.146 -1478.01 -6.07766 60.6991 0.286752 2.14047 0.34771 2.08503 2.14286 0.21436 2.10292 2.1506 -0.153425 2.10824 2.14444 0.181381 2.10602 -1.02634 15.6743 -6.05618 -0.0265904 32.979 -4.84243 -0.0 0.0 -0.0 1.20361 23.7042 4.37979 2.77308 -23.2833 44.8562 6.72012 -73.2442 4.99739 -64.2736 -5.81851 5.21422 -2.9032 17.2186 -10.7432 -0.0 0.0 -0.0 12.9503 19.5918 -26.1583 -31.0779 -1.27991 -64.6967 0.354585 9.96265 -0.0309058 -22.0845 1.27699 -2.50103 2.67051 -26.6377 -26.3434 0.0 0.0 0.0 -22.9962 0.0291305 18.7649 2.59046 -0.11531 -0.380731 31.4332 15.6937 -4.09772 -27.001 0.0 0.0 -0.0 0.0 -0.0 27.9754 18.6599 -7.73858 -2.61438 -0.098781 -0.389027 1.43469 13.2635 0.225044 -31.5922 0.0 0.0 0.0 0.0 0.0 
2442.92 702.242 -1482.55 -6.64535 61.1102 0.792161 2.27853 0.334384 2.02375 2.28079 0.204958 2.04092 2.28788 -0.147034 2.0459 2.28208 0.177854 2.04346 0.886179 15.4221 -7.59928 2.30382 33.5473 -7.21622 -0.0 0.0 -0.0 0.665524 23.8508 3.65969 -1.11114 -21.6635 45.9461 6.06961 -71.5717 4.37724 -64.9518 -5.90422 5.22846 -2.30016 13.7431 -8.7774 -0.0 0.0 -0.0 12.8096 18.6423 -25.8922 -29.0893 -1.08159 -64.5633 0.296881 8.36649 -0.0217144 -22.6387 1.32104 -2.5567 2.68268 -26.6405 -26.4213 0.0 0.0 0.0 -23.1446 -0.978351 18.3407 1.23948 -0.0530215 -0.182808 28.9746 14.886 -3.82055 -27.9267 0.0 0.0 -0.0 0.0 -0.0 27.2866 19.1906 -6.94261 -3.6463 -0.132862 -0.543728 4.26922 12.9454 0.662529 -29.6266 0.0 0.0 0.0 0.0 0.0 
2414.22 701.926 -1489.14 -7.32339 62.0522 1.68029 2.4907 0.397713 2.00162 2.49289 0.269565 2.02286 2.5021 -0.0726213 2.03944 2.49638 0.250315 2.02533 1.73956 15.05 -8.42431 3.34358 33.4684 -8.46339 -0.0 0.0 -0.0 0.44788 24.1115 3.38917 -4.14878 -20.8711 47.3636 5.62321 -70.2234 3.95538 -65.8123 -6.01316 5.24506 -1.9044 11.3071 -7.45442 -0.0 0.0 -0.0 12.5382 18.9223 -25.246 -28.2091 -0.225622 -65.9143 0.3476 9.7702 -0.0297089 -22.8175 1.33537 -2.57457 2.67071 -25.9268 -26.1998 0.0 0.0 0.0 -22.1451 -1.56442 16.7878 0.104574 -0.00432039 -0.0154662 25.449 15.1581 -3.42038 -29.9836 0.0 0.0 -0.0 0.0 -0.0 25.0488 19.6133 -6.25655 -3.90388 -0.140933 -0.582434 10.5834 12.803 1.60419 -26.3331 0.0 0.0 0.0 0.0 0.0 
